<?xml version="1.0" encoding="UTF-8"?>
<svg xmlns="http://www.w3.org/2000/svg" viewBox="0 0 1200 760" role="img" aria-labelledby="title-denkmalgeschuetzte-haeuser">
  <title id="title-denkmalgeschuetzte-haeuser">denkmalgeschuetzte-haeuser</title>
  <defs>
    <linearGradient id="bg-denkmalgeschuetzte-haeuser" x1="0" y1="0" x2="1" y2="1">
      <stop offset="0" stop-color="#fbf8f0"/>
      <stop offset="0.58" stop-color="#f0eadf"/>
      <stop offset="1" stop-color="#e5ded1"/>
    </linearGradient>
    <linearGradient id="gold-denkmalgeschuetzte-haeuser" x1="0" y1="0" x2="1" y2="1">
      <stop offset="0" stop-color="#a68725"/>
      <stop offset="0.55" stop-color="#d4af37"/>
      <stop offset="1" stop-color="#f0d06b"/>
    </linearGradient>
    <filter id="shadow-denkmalgeschuetzte-haeuser" x="-20%" y="-20%" width="140%" height="140%">
      <feDropShadow dx="0" dy="20" stdDeviation="22" flood-color="#151515" flood-opacity="0.16"/>
    </filter>
    <pattern id="grid-denkmalgeschuetzte-haeuser" width="46" height="46" patternUnits="userSpaceOnUse">
      <path d="M46 0H0v46" fill="none" stroke="#d9d0bf" stroke-width="1" opacity="0.45"/>
    </pattern>
  </defs>
  <rect width="1200" height="760" fill="url(#bg-denkmalgeschuetzte-haeuser)"/>
  <rect x="60" y="58" width="1080" height="644" rx="34" fill="#fffaf0" opacity="0.58"/>
  <rect x="60" y="58" width="1080" height="644" rx="34" fill="url(#grid-denkmalgeschuetzte-haeuser)" opacity="0.18"/>
  <circle cx="1035" cy="116" r="78" fill="#d4af37" opacity="0.14"/>
  <circle cx="158" cy="646" r="118" fill="#151515" opacity="0.05"/>
  
      <g filter="url(#shadow-denkmalgeschuetzte-haeuser)">
        <path d="M238 586V240l324-112 324 112v346z" fill="#e7dbca" stroke="#cbbda8" stroke-width="6"/>
        <path d="M238 240l324-112 324 112" fill="none" stroke="#2a2723" stroke-width="18" stroke-linejoin="round"/>
        <g fill="#222">
          <path d="M348 330a58 58 0 0 1 116 0v132H348z"/>
          <path d="M504 330a58 58 0 0 1 116 0v132H504z"/>
          <path d="M660 330a58 58 0 0 1 116 0v132H660z"/>
        </g>
        <path d="M322 518h480" stroke="#2a2723" stroke-width="16" stroke-linecap="round"/>
        <g stroke="url(#gold-denkmalgeschuetzte-haeuser)" stroke-width="9" fill="none" opacity="0.95">
          <path d="M330 276c62-32 106-32 152 0M516 276c62-32 106-32 152 0M684 276c50-24 86-24 130 0"/>
          <path d="M406 222v42M562 206v58M718 222v42"/>
        </g>
      </g>
      <g transform="translate(770 508) rotate(-20)">
        <rect x="0" y="0" width="190" height="28" rx="14" fill="#222"/>
        <path d="M178 2h74l-20 24h-54z" fill="url(#gold-denkmalgeschuetzte-haeuser)"/>
      </g>
</svg>