<?xml version="1.0" encoding="UTF-8"?>
<svg xmlns="http://www.w3.org/2000/svg" viewBox="0 0 1200 760" role="img" aria-labelledby="title-teuerste-fehler-sanierung">
  <title id="title-teuerste-fehler-sanierung">teuerste-fehler-sanierung</title>
  <defs>
    <linearGradient id="bg-teuerste-fehler-sanierung" x1="0" y1="0" x2="1" y2="1">
      <stop offset="0" stop-color="#fbf8f0"/>
      <stop offset="0.58" stop-color="#f0eadf"/>
      <stop offset="1" stop-color="#e5ded1"/>
    </linearGradient>
    <linearGradient id="gold-teuerste-fehler-sanierung" x1="0" y1="0" x2="1" y2="1">
      <stop offset="0" stop-color="#a68725"/>
      <stop offset="0.55" stop-color="#d4af37"/>
      <stop offset="1" stop-color="#f0d06b"/>
    </linearGradient>
    <filter id="shadow-teuerste-fehler-sanierung" x="-20%" y="-20%" width="140%" height="140%">
      <feDropShadow dx="0" dy="20" stdDeviation="22" flood-color="#151515" flood-opacity="0.16"/>
    </filter>
    <pattern id="grid-teuerste-fehler-sanierung" width="46" height="46" patternUnits="userSpaceOnUse">
      <path d="M46 0H0v46" fill="none" stroke="#d9d0bf" stroke-width="1" opacity="0.45"/>
    </pattern>
  </defs>
  <rect width="1200" height="760" fill="url(#bg-teuerste-fehler-sanierung)"/>
  <rect x="60" y="58" width="1080" height="644" rx="34" fill="#fffaf0" opacity="0.58"/>
  <rect x="60" y="58" width="1080" height="644" rx="34" fill="url(#grid-teuerste-fehler-sanierung)" opacity="0.18"/>
  <circle cx="1035" cy="116" r="78" fill="#b56b45" opacity="0.14"/>
  <circle cx="158" cy="646" r="118" fill="#151515" opacity="0.05"/>
  
      <g filter="url(#shadow-teuerste-fehler-sanierung)">
        <rect x="278" y="132" width="456" height="490" rx="28" fill="#fffdf5" stroke="#d3c6b4" stroke-width="6"/>
        <g transform="translate(336 212)" stroke="#d0c3ae" stroke-width="10" stroke-linecap="round">
          <path d="M80 0h230M80 78h270M80 156h210M80 234h250"/>
        </g>
        <g transform="translate(334 194)" fill="none" stroke="url(#gold-teuerste-fehler-sanierung)" stroke-width="12" stroke-linecap="round" stroke-linejoin="round">
          <path d="M0 16l18 18 40-42"/>
          <path d="M0 94l18 18 40-42"/>
          <path d="M0 172l18 18 40-42"/>
        </g>
        <g transform="translate(330 430)">
          <path d="M44 0l44 78H0z" fill="#b56b45"/>
          <path d="M44 24v24" stroke="#fffaf0" stroke-width="8" stroke-linecap="round"/>
          <circle cx="44" cy="62" r="5" fill="#fffaf0"/>
        </g>
      </g>
      
    <g transform="translate(720 456)" opacity="0.95">
      <rect x="0" y="76" width="210" height="22" rx="11" fill="#151515" opacity="0.18"/>
      <rect x="26" y="26" width="24" height="134" rx="12" fill="#b56b45" transform="rotate(-38 38 92)"/>
      <rect x="132" y="12" width="24" height="148" rx="12" fill="#333" transform="rotate(34 144 86)"/>
      <path d="M121 10h68l-18 24h-33z" fill="#333" transform="rotate(34 144 86)"/>
    </g>
      <path d="M794 194l154 154" stroke="#222" stroke-width="18" stroke-linecap="round" opacity="0.2"/>
      <path d="M948 194L794 348" stroke="#222" stroke-width="18" stroke-linecap="round" opacity="0.2"/>
</svg>