<?xml version="1.0" encoding="UTF-8"?>
<svg xmlns="http://www.w3.org/2000/svg" viewBox="0 0 1200 760" role="img" aria-labelledby="title-energieeffiziente-fassadendaemmung">
  <title id="title-energieeffiziente-fassadendaemmung">energieeffiziente-fassadendaemmung</title>
  <defs>
    <linearGradient id="bg-energieeffiziente-fassadendaemmung" x1="0" y1="0" x2="1" y2="1">
      <stop offset="0" stop-color="#fbf8f0"/>
      <stop offset="0.58" stop-color="#f0eadf"/>
      <stop offset="1" stop-color="#e5ded1"/>
    </linearGradient>
    <linearGradient id="gold-energieeffiziente-fassadendaemmung" x1="0" y1="0" x2="1" y2="1">
      <stop offset="0" stop-color="#a68725"/>
      <stop offset="0.55" stop-color="#d4af37"/>
      <stop offset="1" stop-color="#f0d06b"/>
    </linearGradient>
    <filter id="shadow-energieeffiziente-fassadendaemmung" x="-20%" y="-20%" width="140%" height="140%">
      <feDropShadow dx="0" dy="20" stdDeviation="22" flood-color="#151515" flood-opacity="0.16"/>
    </filter>
    <pattern id="grid-energieeffiziente-fassadendaemmung" width="46" height="46" patternUnits="userSpaceOnUse">
      <path d="M46 0H0v46" fill="none" stroke="#d9d0bf" stroke-width="1" opacity="0.45"/>
    </pattern>
  </defs>
  <rect width="1200" height="760" fill="url(#bg-energieeffiziente-fassadendaemmung)"/>
  <rect x="60" y="58" width="1080" height="644" rx="34" fill="#fffaf0" opacity="0.58"/>
  <rect x="60" y="58" width="1080" height="644" rx="34" fill="url(#grid-energieeffiziente-fassadendaemmung)" opacity="0.18"/>
  <circle cx="1035" cy="116" r="78" fill="#6f8a72" opacity="0.14"/>
  <circle cx="158" cy="646" r="118" fill="#151515" opacity="0.05"/>
  
      <g filter="url(#shadow-energieeffiziente-fassadendaemmung)">
        <rect x="266" y="164" width="456" height="414" rx="18" fill="#efe6d7" stroke="#cfc1ad" stroke-width="6"/>
        <g>
          <rect x="722" y="164" width="54" height="414" fill="#d4af37"/>
          <rect x="776" y="164" width="54" height="414" fill="#f0d06b" opacity="0.86"/>
          <rect x="830" y="164" width="66" height="414" fill="#f8f1e6"/>
        </g>
        <g fill="#222">
          <rect x="334" y="226" width="96" height="86" rx="8"/>
          <rect x="514" y="226" width="96" height="86" rx="8"/>
          <rect x="426" y="396" width="92" height="182" rx="8"/>
        </g>
        <path d="M722 164v414M776 164v414M830 164v414" stroke="#2a2723" stroke-width="4" opacity="0.24"/>
      </g>
      <g fill="none" stroke="#6f8a72" stroke-width="12" stroke-linecap="round" opacity="0.78">
        <path d="M944 250c-80 34-88 110-22 154"/>
        <path d="M923 404l-4-44 38 21"/>
        <path d="M962 488c-82-26-102-96-48-158"/>
        <path d="M914 330l32 30-42 8"/>
      </g>
</svg>