<?xml version="1.0" encoding="UTF-8"?>
<svg xmlns="http://www.w3.org/2000/svg" viewBox="0 0 1200 760" role="img" aria-labelledby="title-fassadensanierung-leipzig">
  <title id="title-fassadensanierung-leipzig">fassadensanierung-leipzig</title>
  <defs>
    <linearGradient id="bg-fassadensanierung-leipzig" x1="0" y1="0" x2="1" y2="1">
      <stop offset="0" stop-color="#fbf8f0"/>
      <stop offset="0.58" stop-color="#f0eadf"/>
      <stop offset="1" stop-color="#e5ded1"/>
    </linearGradient>
    <linearGradient id="gold-fassadensanierung-leipzig" x1="0" y1="0" x2="1" y2="1">
      <stop offset="0" stop-color="#a68725"/>
      <stop offset="0.55" stop-color="#d4af37"/>
      <stop offset="1" stop-color="#f0d06b"/>
    </linearGradient>
    <filter id="shadow-fassadensanierung-leipzig" x="-20%" y="-20%" width="140%" height="140%">
      <feDropShadow dx="0" dy="20" stdDeviation="22" flood-color="#151515" flood-opacity="0.16"/>
    </filter>
    <pattern id="grid-fassadensanierung-leipzig" width="46" height="46" patternUnits="userSpaceOnUse">
      <path d="M46 0H0v46" fill="none" stroke="#d9d0bf" stroke-width="1" opacity="0.45"/>
    </pattern>
  </defs>
  <rect width="1200" height="760" fill="url(#bg-fassadensanierung-leipzig)"/>
  <rect x="60" y="58" width="1080" height="644" rx="34" fill="#fffaf0" opacity="0.58"/>
  <rect x="60" y="58" width="1080" height="644" rx="34" fill="url(#grid-fassadensanierung-leipzig)" opacity="0.18"/>
  <circle cx="1035" cy="116" r="78" fill="#d4af37" opacity="0.14"/>
  <circle cx="158" cy="646" r="118" fill="#151515" opacity="0.05"/>
  
      <g filter="url(#shadow-fassadensanierung-leipzig)">
        <rect x="274" y="136" width="466" height="446" rx="18" fill="#efe5d5" stroke="#d0c3ae" stroke-width="6"/>
        <path d="M274 216h466M274 330h466M274 444h466" stroke="#d7ccb9" stroke-width="5"/>
        <g fill="#242424">
          <rect x="330" y="184" width="88" height="86" rx="8" opacity="0.88"/>
          <rect x="482" y="184" width="88" height="86" rx="8" opacity="0.88"/>
          <rect x="634" y="184" width="58" height="248" rx="8" opacity="0.88"/>
        </g>
        <path d="M315 388c78-34 136-15 181 0 72 24 119 16 194-24v96H315z" fill="url(#gold-fassadensanierung-leipzig)" opacity="0.9"/>
        <rect x="338" y="506" width="174" height="30" rx="15" fill="#151515" opacity="0.8"/>
      </g>
      
    <g transform="translate(738 158)" fill="none" stroke="#333" stroke-width="8" stroke-linecap="round" opacity="0.72">
      <path d="M0 0v360M140 0v360M280 0v360"/>
      <path d="M-24 76h330M-24 188h330M-24 300h330"/>
      <path d="M0 0l280 300M280 0L0 300" stroke-width="5" opacity="0.42"/>
    </g>
      <g transform="translate(770 468)">
        <rect x="0" y="0" width="164" height="42" rx="21" fill="url(#gold-fassadensanierung-leipzig)"/>
        <rect x="154" y="14" width="138" height="14" rx="7" fill="#222"/>
        <path d="M292 21h42" stroke="#222" stroke-width="8" stroke-linecap="round"/>
      </g>
</svg>