<?xml version="1.0" encoding="UTF-8"?>
<svg xmlns="http://www.w3.org/2000/svg" viewBox="0 0 1200 760" role="img" aria-labelledby="title-feuchtigkeit-schimmel-sanieren">
  <title id="title-feuchtigkeit-schimmel-sanieren">feuchtigkeit-schimmel-sanieren</title>
  <defs>
    <linearGradient id="bg-feuchtigkeit-schimmel-sanieren" x1="0" y1="0" x2="1" y2="1">
      <stop offset="0" stop-color="#fbf8f0"/>
      <stop offset="0.58" stop-color="#f0eadf"/>
      <stop offset="1" stop-color="#e5ded1"/>
    </linearGradient>
    <linearGradient id="gold-feuchtigkeit-schimmel-sanieren" x1="0" y1="0" x2="1" y2="1">
      <stop offset="0" stop-color="#a68725"/>
      <stop offset="0.55" stop-color="#d4af37"/>
      <stop offset="1" stop-color="#f0d06b"/>
    </linearGradient>
    <filter id="shadow-feuchtigkeit-schimmel-sanieren" x="-20%" y="-20%" width="140%" height="140%">
      <feDropShadow dx="0" dy="20" stdDeviation="22" flood-color="#151515" flood-opacity="0.16"/>
    </filter>
    <pattern id="grid-feuchtigkeit-schimmel-sanieren" width="46" height="46" patternUnits="userSpaceOnUse">
      <path d="M46 0H0v46" fill="none" stroke="#d9d0bf" stroke-width="1" opacity="0.45"/>
    </pattern>
  </defs>
  <rect width="1200" height="760" fill="url(#bg-feuchtigkeit-schimmel-sanieren)"/>
  <rect x="60" y="58" width="1080" height="644" rx="34" fill="#fffaf0" opacity="0.58"/>
  <rect x="60" y="58" width="1080" height="644" rx="34" fill="url(#grid-feuchtigkeit-schimmel-sanieren)" opacity="0.18"/>
  <circle cx="1035" cy="116" r="78" fill="#6f8a72" opacity="0.14"/>
  <circle cx="158" cy="646" r="118" fill="#151515" opacity="0.05"/>
  
      <g filter="url(#shadow-feuchtigkeit-schimmel-sanieren)">
        <path d="M248 138h594v430H248z" fill="#eee4d5" stroke="#d3c6b4" stroke-width="6"/>
        <path d="M248 138h256v430H248z" fill="#f8f1e6"/>
        <path d="M248 568h594" stroke="#2d2a25" stroke-width="18"/>
        <path d="M598 568c-12-92 15-134 60-170 56-44 71-95 42-154 88 62 126 145 92 324z" fill="#6f8a72" opacity="0.35"/>
        <circle cx="682" cy="386" r="24" fill="#3d5d44" opacity="0.38"/>
        <circle cx="734" cy="456" r="18" fill="#3d5d44" opacity="0.3"/>
        <path d="M542 300c54-42 132-42 188 0" fill="none" stroke="#4f859f" stroke-width="8" stroke-linecap="round" opacity="0.62"/>
        <rect x="318" y="246" width="146" height="196" rx="18" fill="#222"/>
        <rect x="344" y="280" width="94" height="66" rx="8" fill="#9cc0c3"/>
        <circle cx="391" cy="392" r="22" fill="url(#gold-feuchtigkeit-schimmel-sanieren)"/>
      </g>
      <g stroke="#4f859f" stroke-width="8" stroke-linecap="round" opacity="0.68">
        <path d="M866 288c54 22 84 60 92 112"/>
        <path d="M946 396l16 38 23-34"/>
      </g>
</svg>