<?xml version="1.0" encoding="UTF-8"?>
<svg xmlns="http://www.w3.org/2000/svg" viewBox="0 0 1200 760" role="img" aria-labelledby="title-innenwaende-modernisieren">
  <title id="title-innenwaende-modernisieren">innenwaende-modernisieren</title>
  <defs>
    <linearGradient id="bg-innenwaende-modernisieren" x1="0" y1="0" x2="1" y2="1">
      <stop offset="0" stop-color="#fbf8f0"/>
      <stop offset="0.58" stop-color="#f0eadf"/>
      <stop offset="1" stop-color="#e5ded1"/>
    </linearGradient>
    <linearGradient id="gold-innenwaende-modernisieren" x1="0" y1="0" x2="1" y2="1">
      <stop offset="0" stop-color="#a68725"/>
      <stop offset="0.55" stop-color="#d4af37"/>
      <stop offset="1" stop-color="#f0d06b"/>
    </linearGradient>
    <filter id="shadow-innenwaende-modernisieren" x="-20%" y="-20%" width="140%" height="140%">
      <feDropShadow dx="0" dy="20" stdDeviation="22" flood-color="#151515" flood-opacity="0.16"/>
    </filter>
    <pattern id="grid-innenwaende-modernisieren" width="46" height="46" patternUnits="userSpaceOnUse">
      <path d="M46 0H0v46" fill="none" stroke="#d9d0bf" stroke-width="1" opacity="0.45"/>
    </pattern>
  </defs>
  <rect width="1200" height="760" fill="url(#bg-innenwaende-modernisieren)"/>
  <rect x="60" y="58" width="1080" height="644" rx="34" fill="#fffaf0" opacity="0.58"/>
  <rect x="60" y="58" width="1080" height="644" rx="34" fill="url(#grid-innenwaende-modernisieren)" opacity="0.18"/>
  <circle cx="1035" cy="116" r="78" fill="#b56b45" opacity="0.14"/>
  <circle cx="158" cy="646" r="118" fill="#151515" opacity="0.05"/>
  
      <g filter="url(#shadow-innenwaende-modernisieren)">
        <path d="M214 574V170h366v404z" fill="#f8f1e6" stroke="#d0c3ae" stroke-width="6"/>
        <path d="M580 170h398v404H580z" fill="#eee2d1" stroke="#d0c3ae" stroke-width="6"/>
        <g stroke="#6d7f88" stroke-width="10" stroke-linecap="round">
          <path d="M294 230v272M374 230v272M454 230v272"/>
          <path d="M274 230h210M274 502h210"/>
        </g>
        <g>
          <rect x="630" y="220" width="70" height="38" rx="6" fill="#b66c4d" opacity="0.78"/>
<rect x="712" y="220" width="70" height="38" rx="6" fill="#b66c4d" opacity="0.78"/>
<rect x="794" y="220" width="70" height="38" rx="6" fill="#b66c4d" opacity="0.78"/>
<rect x="876" y="220" width="70" height="38" rx="6" fill="#b66c4d" opacity="0.78"/>
<rect x="671" y="278" width="70" height="38" rx="6" fill="#b66c4d" opacity="0.78"/>
<rect x="753" y="278" width="70" height="38" rx="6" fill="#b66c4d" opacity="0.78"/>
<rect x="835" y="278" width="70" height="38" rx="6" fill="#b66c4d" opacity="0.78"/>
<rect x="917" y="278" width="70" height="38" rx="6" fill="#b66c4d" opacity="0.78"/>
<rect x="630" y="336" width="70" height="38" rx="6" fill="#b66c4d" opacity="0.78"/>
<rect x="712" y="336" width="70" height="38" rx="6" fill="#b66c4d" opacity="0.78"/>
<rect x="794" y="336" width="70" height="38" rx="6" fill="#b66c4d" opacity="0.78"/>
<rect x="876" y="336" width="70" height="38" rx="6" fill="#b66c4d" opacity="0.78"/>
<rect x="671" y="394" width="70" height="38" rx="6" fill="#b66c4d" opacity="0.78"/>
<rect x="753" y="394" width="70" height="38" rx="6" fill="#b66c4d" opacity="0.78"/>
<rect x="835" y="394" width="70" height="38" rx="6" fill="#b66c4d" opacity="0.78"/>
<rect x="917" y="394" width="70" height="38" rx="6" fill="#b66c4d" opacity="0.78"/>
<rect x="630" y="452" width="70" height="38" rx="6" fill="#b66c4d" opacity="0.78"/>
<rect x="712" y="452" width="70" height="38" rx="6" fill="#b66c4d" opacity="0.78"/>
<rect x="794" y="452" width="70" height="38" rx="6" fill="#b66c4d" opacity="0.78"/>
<rect x="876" y="452" width="70" height="38" rx="6" fill="#b66c4d" opacity="0.78"/>
        </g>
        <path d="M580 170v404" stroke="url(#gold-innenwaende-modernisieren)" stroke-width="16"/>
        <path d="M214 574h764" stroke="#2a2723" stroke-width="18"/>
      </g>
      
    <g transform="translate(742 482)" opacity="0.95">
      <rect x="0" y="76" width="210" height="22" rx="11" fill="#151515" opacity="0.18"/>
      <rect x="26" y="26" width="24" height="134" rx="12" fill="#b56b45" transform="rotate(-38 38 92)"/>
      <rect x="132" y="12" width="24" height="148" rx="12" fill="#333" transform="rotate(34 144 86)"/>
      <path d="M121 10h68l-18 24h-33z" fill="#333" transform="rotate(34 144 86)"/>
    </g>
</svg>