<?xml version="1.0" encoding="UTF-8"?>
<svg xmlns="http://www.w3.org/2000/svg" viewBox="0 0 1200 760" role="img" aria-labelledby="title-keller-abdichten-feuchtigkeit">
  <title id="title-keller-abdichten-feuchtigkeit">keller-abdichten-feuchtigkeit</title>
  <defs>
    <linearGradient id="bg-keller-abdichten-feuchtigkeit" x1="0" y1="0" x2="1" y2="1">
      <stop offset="0" stop-color="#fbf8f0"/>
      <stop offset="0.58" stop-color="#f0eadf"/>
      <stop offset="1" stop-color="#e5ded1"/>
    </linearGradient>
    <linearGradient id="gold-keller-abdichten-feuchtigkeit" x1="0" y1="0" x2="1" y2="1">
      <stop offset="0" stop-color="#a68725"/>
      <stop offset="0.55" stop-color="#d4af37"/>
      <stop offset="1" stop-color="#f0d06b"/>
    </linearGradient>
    <filter id="shadow-keller-abdichten-feuchtigkeit" x="-20%" y="-20%" width="140%" height="140%">
      <feDropShadow dx="0" dy="20" stdDeviation="22" flood-color="#151515" flood-opacity="0.16"/>
    </filter>
    <pattern id="grid-keller-abdichten-feuchtigkeit" width="46" height="46" patternUnits="userSpaceOnUse">
      <path d="M46 0H0v46" fill="none" stroke="#d9d0bf" stroke-width="1" opacity="0.45"/>
    </pattern>
  </defs>
  <rect width="1200" height="760" fill="url(#bg-keller-abdichten-feuchtigkeit)"/>
  <rect x="60" y="58" width="1080" height="644" rx="34" fill="#fffaf0" opacity="0.58"/>
  <rect x="60" y="58" width="1080" height="644" rx="34" fill="url(#grid-keller-abdichten-feuchtigkeit)" opacity="0.18"/>
  <circle cx="1035" cy="116" r="78" fill="#4f859f" opacity="0.14"/>
  <circle cx="158" cy="646" r="118" fill="#151515" opacity="0.05"/>
  
      <g filter="url(#shadow-keller-abdichten-feuchtigkeit)">
        <path d="M238 218h696v344H238z" fill="#d7c6ae" stroke="#9c8d78" stroke-width="7"/>
        <path d="M238 218h696v92H238z" fill="#efe6d7"/>
        <path d="M300 310v252M452 310v252M604 310v252M756 310v252" stroke="#9c8d78" stroke-width="5" opacity="0.72"/>
        <path d="M238 420c90-40 158 30 248-10 106-48 158 36 260-6 76-32 118-18 188 20v138H238z" fill="#4f859f" opacity="0.38"/>
        <path d="M292 562c62-72 80-150 70-244" stroke="url(#gold-keller-abdichten-feuchtigkeit)" stroke-width="22" stroke-linecap="round"/>
        <path d="M856 562c-38-96-30-186 24-270" stroke="url(#gold-keller-abdichten-feuchtigkeit)" stroke-width="22" stroke-linecap="round"/>
      </g>
      <g fill="#4f859f" opacity="0.76">
        <path d="M532 250c24 34 38 56 38 82a38 38 0 0 1-76 0c0-26 14-48 38-82z"/>
        <path d="M672 302c18 26 29 44 29 64a29 29 0 0 1-58 0c0-20 11-38 29-64z"/>
      </g>
</svg>