<?xml version="1.0" encoding="UTF-8"?>
<svg xmlns="http://www.w3.org/2000/svg" viewBox="0 0 1200 760" role="img" aria-labelledby="title-risse-fassade-mauerwerk">
  <title id="title-risse-fassade-mauerwerk">risse-fassade-mauerwerk</title>
  <defs>
    <linearGradient id="bg-risse-fassade-mauerwerk" x1="0" y1="0" x2="1" y2="1">
      <stop offset="0" stop-color="#fbf8f0"/>
      <stop offset="0.58" stop-color="#f0eadf"/>
      <stop offset="1" stop-color="#e5ded1"/>
    </linearGradient>
    <linearGradient id="gold-risse-fassade-mauerwerk" x1="0" y1="0" x2="1" y2="1">
      <stop offset="0" stop-color="#a68725"/>
      <stop offset="0.55" stop-color="#d4af37"/>
      <stop offset="1" stop-color="#f0d06b"/>
    </linearGradient>
    <filter id="shadow-risse-fassade-mauerwerk" x="-20%" y="-20%" width="140%" height="140%">
      <feDropShadow dx="0" dy="20" stdDeviation="22" flood-color="#151515" flood-opacity="0.16"/>
    </filter>
    <pattern id="grid-risse-fassade-mauerwerk" width="46" height="46" patternUnits="userSpaceOnUse">
      <path d="M46 0H0v46" fill="none" stroke="#d9d0bf" stroke-width="1" opacity="0.45"/>
    </pattern>
  </defs>
  <rect width="1200" height="760" fill="url(#bg-risse-fassade-mauerwerk)"/>
  <rect x="60" y="58" width="1080" height="644" rx="34" fill="#fffaf0" opacity="0.58"/>
  <rect x="60" y="58" width="1080" height="644" rx="34" fill="url(#grid-risse-fassade-mauerwerk)" opacity="0.18"/>
  <circle cx="1035" cy="116" r="78" fill="#b56b45" opacity="0.14"/>
  <circle cx="158" cy="646" r="118" fill="#151515" opacity="0.05"/>
  
      <g filter="url(#shadow-risse-fassade-mauerwerk)">
        <rect x="214" y="132" width="622" height="444" rx="22" fill="#b66c4d"/>
        <rect x="244" y="164" width="94" height="38" rx="7" fill="#d59672" opacity="0.72"/>
<rect x="352" y="164" width="94" height="38" rx="7" fill="#d59672" opacity="0.72"/>
<rect x="460" y="164" width="94" height="38" rx="7" fill="#d59672" opacity="0.72"/>
<rect x="568" y="164" width="94" height="38" rx="7" fill="#d59672" opacity="0.72"/>
<rect x="676" y="164" width="94" height="38" rx="7" fill="#d59672" opacity="0.72"/>
<rect x="784" y="164" width="94" height="38" rx="7" fill="#d59672" opacity="0.72"/>
<rect x="300" y="218" width="94" height="38" rx="7" fill="#d59672" opacity="0.72"/>
<rect x="408" y="218" width="94" height="38" rx="7" fill="#d59672" opacity="0.72"/>
<rect x="516" y="218" width="94" height="38" rx="7" fill="#d59672" opacity="0.72"/>
<rect x="624" y="218" width="94" height="38" rx="7" fill="#d59672" opacity="0.72"/>
<rect x="732" y="218" width="94" height="38" rx="7" fill="#d59672" opacity="0.72"/>
<rect x="840" y="218" width="94" height="38" rx="7" fill="#d59672" opacity="0.72"/>
<rect x="244" y="272" width="94" height="38" rx="7" fill="#d59672" opacity="0.72"/>
<rect x="352" y="272" width="94" height="38" rx="7" fill="#d59672" opacity="0.72"/>
<rect x="460" y="272" width="94" height="38" rx="7" fill="#d59672" opacity="0.72"/>
<rect x="568" y="272" width="94" height="38" rx="7" fill="#d59672" opacity="0.72"/>
<rect x="676" y="272" width="94" height="38" rx="7" fill="#d59672" opacity="0.72"/>
<rect x="784" y="272" width="94" height="38" rx="7" fill="#d59672" opacity="0.72"/>
<rect x="300" y="326" width="94" height="38" rx="7" fill="#d59672" opacity="0.72"/>
<rect x="408" y="326" width="94" height="38" rx="7" fill="#d59672" opacity="0.72"/>
<rect x="516" y="326" width="94" height="38" rx="7" fill="#d59672" opacity="0.72"/>
<rect x="624" y="326" width="94" height="38" rx="7" fill="#d59672" opacity="0.72"/>
<rect x="732" y="326" width="94" height="38" rx="7" fill="#d59672" opacity="0.72"/>
<rect x="840" y="326" width="94" height="38" rx="7" fill="#d59672" opacity="0.72"/>
<rect x="244" y="380" width="94" height="38" rx="7" fill="#d59672" opacity="0.72"/>
<rect x="352" y="380" width="94" height="38" rx="7" fill="#d59672" opacity="0.72"/>
<rect x="460" y="380" width="94" height="38" rx="7" fill="#d59672" opacity="0.72"/>
<rect x="568" y="380" width="94" height="38" rx="7" fill="#d59672" opacity="0.72"/>
<rect x="676" y="380" width="94" height="38" rx="7" fill="#d59672" opacity="0.72"/>
<rect x="784" y="380" width="94" height="38" rx="7" fill="#d59672" opacity="0.72"/>
<rect x="300" y="434" width="94" height="38" rx="7" fill="#d59672" opacity="0.72"/>
<rect x="408" y="434" width="94" height="38" rx="7" fill="#d59672" opacity="0.72"/>
<rect x="516" y="434" width="94" height="38" rx="7" fill="#d59672" opacity="0.72"/>
<rect x="624" y="434" width="94" height="38" rx="7" fill="#d59672" opacity="0.72"/>
<rect x="732" y="434" width="94" height="38" rx="7" fill="#d59672" opacity="0.72"/>
<rect x="840" y="434" width="94" height="38" rx="7" fill="#d59672" opacity="0.72"/>
<rect x="244" y="488" width="94" height="38" rx="7" fill="#d59672" opacity="0.72"/>
<rect x="352" y="488" width="94" height="38" rx="7" fill="#d59672" opacity="0.72"/>
<rect x="460" y="488" width="94" height="38" rx="7" fill="#d59672" opacity="0.72"/>
<rect x="568" y="488" width="94" height="38" rx="7" fill="#d59672" opacity="0.72"/>
<rect x="676" y="488" width="94" height="38" rx="7" fill="#d59672" opacity="0.72"/>
<rect x="784" y="488" width="94" height="38" rx="7" fill="#d59672" opacity="0.72"/>
        <path d="M531 132l-34 82 52 42-67 92 58 60-42 168" fill="none" stroke="#1d1d1d" stroke-width="14" stroke-linejoin="round"/>
        <path d="M536 160l62 50-33 74 83 40" fill="none" stroke="#1d1d1d" stroke-width="8" stroke-linecap="round" opacity="0.65"/>
        <path d="M489 320l-88 48 54 40" fill="none" stroke="#1d1d1d" stroke-width="8" stroke-linecap="round" opacity="0.65"/>
      </g>
      <g transform="translate(752 388) rotate(-12)" filter="url(#shadow-risse-fassade-mauerwerk)">
        <circle cx="102" cy="102" r="86" fill="none" stroke="#222" stroke-width="20"/>
        <path d="M166 166l124 124" stroke="url(#gold-risse-fassade-mauerwerk)" stroke-width="24" stroke-linecap="round"/>
        <circle cx="102" cy="102" r="56" fill="#fffaf0" opacity="0.36"/>
      </g>
</svg>