<?xml version="1.0" encoding="UTF-8"?>
<svg xmlns="http://www.w3.org/2000/svg" viewBox="0 0 1200 760" role="img" aria-labelledby="title-sanierungskosten-leipzig">
  <title id="title-sanierungskosten-leipzig">sanierungskosten-leipzig</title>
  <defs>
    <linearGradient id="bg-sanierungskosten-leipzig" x1="0" y1="0" x2="1" y2="1">
      <stop offset="0" stop-color="#fbf8f0"/>
      <stop offset="0.58" stop-color="#f0eadf"/>
      <stop offset="1" stop-color="#e5ded1"/>
    </linearGradient>
    <linearGradient id="gold-sanierungskosten-leipzig" x1="0" y1="0" x2="1" y2="1">
      <stop offset="0" stop-color="#a68725"/>
      <stop offset="0.55" stop-color="#d4af37"/>
      <stop offset="1" stop-color="#f0d06b"/>
    </linearGradient>
    <filter id="shadow-sanierungskosten-leipzig" x="-20%" y="-20%" width="140%" height="140%">
      <feDropShadow dx="0" dy="20" stdDeviation="22" flood-color="#151515" flood-opacity="0.16"/>
    </filter>
    <pattern id="grid-sanierungskosten-leipzig" width="46" height="46" patternUnits="userSpaceOnUse">
      <path d="M46 0H0v46" fill="none" stroke="#d9d0bf" stroke-width="1" opacity="0.45"/>
    </pattern>
  </defs>
  <rect width="1200" height="760" fill="url(#bg-sanierungskosten-leipzig)"/>
  <rect x="60" y="58" width="1080" height="644" rx="34" fill="#fffaf0" opacity="0.58"/>
  <rect x="60" y="58" width="1080" height="644" rx="34" fill="url(#grid-sanierungskosten-leipzig)" opacity="0.18"/>
  <circle cx="1035" cy="116" r="78" fill="#d4af37" opacity="0.14"/>
  <circle cx="158" cy="646" r="118" fill="#151515" opacity="0.05"/>
  
      <g filter="url(#shadow-sanierungskosten-leipzig)">
        <rect x="272" y="132" width="470" height="482" rx="28" fill="#fffdf5" stroke="#d3c6b4" stroke-width="6"/>
        <rect x="322" y="194" width="270" height="22" rx="11" fill="#242424" opacity="0.86"/>
        <rect x="322" y="254" width="356" height="18" rx="9" fill="#d9d0bf"/>
        <rect x="322" y="306" width="306" height="18" rx="9" fill="#d9d0bf"/>
        <rect x="322" y="358" width="340" height="18" rx="9" fill="#d9d0bf"/>
        <g transform="translate(322 430)">
          <rect width="250" height="90" rx="16" fill="#f4ead6"/>
          <path d="M24 62l48-38 42 24 46-48 54 34" fill="none" stroke="url(#gold-sanierungskosten-leipzig)" stroke-width="10" stroke-linecap="round" stroke-linejoin="round"/>
        </g>
      </g>
      <g transform="translate(704 370)" filter="url(#shadow-sanierungskosten-leipzig)">
        <circle cx="82" cy="82" r="82" fill="url(#gold-sanierungskosten-leipzig)"/>
        <circle cx="82" cy="82" r="54" fill="none" stroke="#151515" stroke-width="10" opacity="0.36"/>
        <rect x="160" y="96" width="180" height="56" rx="18" fill="#252525"/>
        <rect x="188" y="118" width="38" height="12" rx="6" fill="#f0d06b"/>
        <rect x="242" y="118" width="64" height="12" rx="6" fill="#f0d06b" opacity="0.72"/>
      </g>
</svg>