<?xml version="1.0" encoding="UTF-8"?>
<svg xmlns="http://www.w3.org/2000/svg" viewBox="0 0 1200 760" role="img" aria-labelledby="title-trockenbau-altbauwohnungen">
  <title id="title-trockenbau-altbauwohnungen">trockenbau-altbauwohnungen</title>
  <defs>
    <linearGradient id="bg-trockenbau-altbauwohnungen" x1="0" y1="0" x2="1" y2="1">
      <stop offset="0" stop-color="#fbf8f0"/>
      <stop offset="0.58" stop-color="#f0eadf"/>
      <stop offset="1" stop-color="#e5ded1"/>
    </linearGradient>
    <linearGradient id="gold-trockenbau-altbauwohnungen" x1="0" y1="0" x2="1" y2="1">
      <stop offset="0" stop-color="#a68725"/>
      <stop offset="0.55" stop-color="#d4af37"/>
      <stop offset="1" stop-color="#f0d06b"/>
    </linearGradient>
    <filter id="shadow-trockenbau-altbauwohnungen" x="-20%" y="-20%" width="140%" height="140%">
      <feDropShadow dx="0" dy="20" stdDeviation="22" flood-color="#151515" flood-opacity="0.16"/>
    </filter>
    <pattern id="grid-trockenbau-altbauwohnungen" width="46" height="46" patternUnits="userSpaceOnUse">
      <path d="M46 0H0v46" fill="none" stroke="#d9d0bf" stroke-width="1" opacity="0.45"/>
    </pattern>
  </defs>
  <rect width="1200" height="760" fill="url(#bg-trockenbau-altbauwohnungen)"/>
  <rect x="60" y="58" width="1080" height="644" rx="34" fill="#fffaf0" opacity="0.58"/>
  <rect x="60" y="58" width="1080" height="644" rx="34" fill="url(#grid-trockenbau-altbauwohnungen)" opacity="0.18"/>
  <circle cx="1035" cy="116" r="78" fill="#58798c" opacity="0.14"/>
  <circle cx="158" cy="646" r="118" fill="#151515" opacity="0.05"/>
  
      <g filter="url(#shadow-trockenbau-altbauwohnungen)">
        <path d="M226 152h448v430H226z" fill="#f7f0e4" stroke="#d0c3ae" stroke-width="6"/>
        <path d="M674 152l206 88v342H674z" fill="#e7dfd1" stroke="#d0c3ae" stroke-width="6"/>
        <rect x="286" y="204" width="128" height="180" rx="8" fill="#26343b"/>
        <path d="M286 294h128M350 204v180" stroke="#f7f0e4" stroke-width="6" opacity="0.85"/>
        <g stroke="#6c7f88" stroke-width="12" stroke-linecap="round">
          <path d="M508 210v306M588 210v306M668 210v306"/>
          <path d="M492 210h196M492 516h196"/>
        </g>
        <rect x="704" y="270" width="116" height="246" rx="4" fill="#fdf9ef" stroke="#cfc5b5" stroke-width="5"/>
        <path d="M226 582h654" stroke="#403b34" stroke-width="18"/>
      </g>
      
    <g transform="translate(792 474)" opacity="0.95">
      <rect x="0" y="76" width="210" height="22" rx="11" fill="#151515" opacity="0.18"/>
      <rect x="26" y="26" width="24" height="134" rx="12" fill="#58798c" transform="rotate(-38 38 92)"/>
      <rect x="132" y="12" width="24" height="148" rx="12" fill="#333" transform="rotate(34 144 86)"/>
      <path d="M121 10h68l-18 24h-33z" fill="#333" transform="rotate(34 144 86)"/>
    </g>
</svg>