<?xml version="1.0" encoding="UTF-8"?>
<svg xmlns="http://www.w3.org/2000/svg" viewBox="0 0 1200 760" role="img" aria-labelledby="title-wanddurchbruch-tragende-wand">
  <title id="title-wanddurchbruch-tragende-wand">wanddurchbruch-tragende-wand</title>
  <defs>
    <linearGradient id="bg-wanddurchbruch-tragende-wand" x1="0" y1="0" x2="1" y2="1">
      <stop offset="0" stop-color="#fbf8f0"/>
      <stop offset="0.58" stop-color="#f0eadf"/>
      <stop offset="1" stop-color="#e5ded1"/>
    </linearGradient>
    <linearGradient id="gold-wanddurchbruch-tragende-wand" x1="0" y1="0" x2="1" y2="1">
      <stop offset="0" stop-color="#a68725"/>
      <stop offset="0.55" stop-color="#d4af37"/>
      <stop offset="1" stop-color="#f0d06b"/>
    </linearGradient>
    <filter id="shadow-wanddurchbruch-tragende-wand" x="-20%" y="-20%" width="140%" height="140%">
      <feDropShadow dx="0" dy="20" stdDeviation="22" flood-color="#151515" flood-opacity="0.16"/>
    </filter>
    <pattern id="grid-wanddurchbruch-tragende-wand" width="46" height="46" patternUnits="userSpaceOnUse">
      <path d="M46 0H0v46" fill="none" stroke="#d9d0bf" stroke-width="1" opacity="0.45"/>
    </pattern>
  </defs>
  <rect width="1200" height="760" fill="url(#bg-wanddurchbruch-tragende-wand)"/>
  <rect x="60" y="58" width="1080" height="644" rx="34" fill="#fffaf0" opacity="0.58"/>
  <rect x="60" y="58" width="1080" height="644" rx="34" fill="url(#grid-wanddurchbruch-tragende-wand)" opacity="0.18"/>
  <circle cx="1035" cy="116" r="78" fill="#d4af37" opacity="0.14"/>
  <circle cx="158" cy="646" r="118" fill="#151515" opacity="0.05"/>
  
      <g filter="url(#shadow-wanddurchbruch-tragende-wand)">
        <rect x="242" y="154" width="704" height="420" rx="18" fill="#d8c6ad" stroke="#a7957b" stroke-width="7"/>
        <rect x="278" y="190" width="74" height="36" rx="5" fill="#b66c4d" opacity="0.55"/>
<rect x="366" y="190" width="74" height="36" rx="5" fill="#b66c4d" opacity="0.55"/>
<rect x="454" y="190" width="74" height="36" rx="5" fill="#b66c4d" opacity="0.55"/>
<rect x="542" y="190" width="74" height="36" rx="5" fill="#b66c4d" opacity="0.55"/>
<rect x="630" y="190" width="74" height="36" rx="5" fill="#b66c4d" opacity="0.55"/>
<rect x="718" y="190" width="74" height="36" rx="5" fill="#b66c4d" opacity="0.55"/>
<rect x="806" y="190" width="74" height="36" rx="5" fill="#b66c4d" opacity="0.55"/>
<rect x="322" y="246" width="74" height="36" rx="5" fill="#b66c4d" opacity="0.55"/>
<rect x="410" y="246" width="74" height="36" rx="5" fill="#b66c4d" opacity="0.55"/>
<rect x="498" y="246" width="74" height="36" rx="5" fill="#b66c4d" opacity="0.55"/>
<rect x="586" y="246" width="74" height="36" rx="5" fill="#b66c4d" opacity="0.55"/>
<rect x="674" y="246" width="74" height="36" rx="5" fill="#b66c4d" opacity="0.55"/>
<rect x="762" y="246" width="74" height="36" rx="5" fill="#b66c4d" opacity="0.55"/>
<rect x="850" y="246" width="74" height="36" rx="5" fill="#b66c4d" opacity="0.55"/>
<rect x="278" y="302" width="74" height="36" rx="5" fill="#b66c4d" opacity="0.55"/>
<rect x="366" y="302" width="74" height="36" rx="5" fill="#b66c4d" opacity="0.55"/>
<rect x="454" y="302" width="74" height="36" rx="5" fill="#b66c4d" opacity="0.55"/>
<rect x="542" y="302" width="74" height="36" rx="5" fill="#b66c4d" opacity="0.55"/>
<rect x="630" y="302" width="74" height="36" rx="5" fill="#b66c4d" opacity="0.55"/>
<rect x="718" y="302" width="74" height="36" rx="5" fill="#b66c4d" opacity="0.55"/>
<rect x="806" y="302" width="74" height="36" rx="5" fill="#b66c4d" opacity="0.55"/>
<rect x="322" y="358" width="74" height="36" rx="5" fill="#b66c4d" opacity="0.55"/>
<rect x="410" y="358" width="74" height="36" rx="5" fill="#b66c4d" opacity="0.55"/>
<rect x="498" y="358" width="74" height="36" rx="5" fill="#b66c4d" opacity="0.55"/>
<rect x="586" y="358" width="74" height="36" rx="5" fill="#b66c4d" opacity="0.55"/>
<rect x="674" y="358" width="74" height="36" rx="5" fill="#b66c4d" opacity="0.55"/>
<rect x="762" y="358" width="74" height="36" rx="5" fill="#b66c4d" opacity="0.55"/>
<rect x="850" y="358" width="74" height="36" rx="5" fill="#b66c4d" opacity="0.55"/>
<rect x="278" y="414" width="74" height="36" rx="5" fill="#b66c4d" opacity="0.55"/>
<rect x="366" y="414" width="74" height="36" rx="5" fill="#b66c4d" opacity="0.55"/>
<rect x="454" y="414" width="74" height="36" rx="5" fill="#b66c4d" opacity="0.55"/>
<rect x="542" y="414" width="74" height="36" rx="5" fill="#b66c4d" opacity="0.55"/>
<rect x="630" y="414" width="74" height="36" rx="5" fill="#b66c4d" opacity="0.55"/>
<rect x="718" y="414" width="74" height="36" rx="5" fill="#b66c4d" opacity="0.55"/>
<rect x="806" y="414" width="74" height="36" rx="5" fill="#b66c4d" opacity="0.55"/>
<rect x="322" y="470" width="74" height="36" rx="5" fill="#b66c4d" opacity="0.55"/>
<rect x="410" y="470" width="74" height="36" rx="5" fill="#b66c4d" opacity="0.55"/>
<rect x="498" y="470" width="74" height="36" rx="5" fill="#b66c4d" opacity="0.55"/>
<rect x="586" y="470" width="74" height="36" rx="5" fill="#b66c4d" opacity="0.55"/>
<rect x="674" y="470" width="74" height="36" rx="5" fill="#b66c4d" opacity="0.55"/>
<rect x="762" y="470" width="74" height="36" rx="5" fill="#b66c4d" opacity="0.55"/>
<rect x="850" y="470" width="74" height="36" rx="5" fill="#b66c4d" opacity="0.55"/>
        <path d="M474 258h252v316H474z" fill="#f7f4ee"/>
        <rect x="430" y="226" width="340" height="48" rx="8" fill="#222"/>
        <rect x="454" y="274" width="48" height="300" fill="#222" opacity="0.82"/>
        <rect x="698" y="274" width="48" height="300" fill="#222" opacity="0.82"/>
        <path d="M544 574V336M656 574V336" stroke="url(#gold-wanddurchbruch-tragende-wand)" stroke-width="16" stroke-linecap="round"/>
        <path d="M508 336h184" stroke="url(#gold-wanddurchbruch-tragende-wand)" stroke-width="16" stroke-linecap="round"/>
      </g>
      <g transform="translate(778 444)" opacity="0.9">
        <path d="M0 102h210" stroke="#222" stroke-width="12" stroke-linecap="round"/>
        <path d="M34 102l72-132 72 132" fill="none" stroke="#222" stroke-width="10" stroke-linecap="round" stroke-linejoin="round"/>
        <path d="M64 46h84M48 74h116" stroke="#222" stroke-width="8" stroke-linecap="round"/>
      </g>
</svg>